<svg width="225" height="32" viewBox="0 0 225 32" fill="none" xmlns="http://www.w3.org/2000/svg">
<g clip-path="url(#clip0)">
<path d="M59.3136 26.5658L61.6417 20.6787H68.3637L65.1729 11.7482L69.163 1.65906L80.5903 32H72.1631L70.2104 26.5658H59.3136Z" fill="white" fill-opacity="0.91"/>
<path d="M52.1199 30.3409L64.3529 0L56.243 0.000645802L47.8746 19.6076L41.9235 0.000645802H35.6901L29.3009 19.6076L24.7946 10.6726L20.7167 23.2358L24.8573 30.3409H32.8386L38.6126 12.7577L44.1172 30.3409H52.1199Z" fill="#5A0FC8"/>
<path d="M7.69832 19.9249H12.6938C14.2071 19.9249 15.5543 19.7563 16.7361 19.4183L18.0278 15.4386L21.6385 4.31439C21.3639 3.87888 21.0499 3.46599 20.6964 3.07765C18.8426 1.02545 16.13 0 12.5594 0H0V30.341H7.69832V19.9249ZM14.3104 6.97979C15.0348 7.70866 15.3966 8.68435 15.3966 9.90559C15.3966 11.1372 15.0781 12.1135 14.4416 12.8353C13.7431 13.6371 12.4579 14.0384 10.5853 14.0384H7.69832V5.88714H10.6067C12.3519 5.88714 13.5867 6.25092 14.3104 6.97979Z" fill="white" fill-opacity="0.91"/>
<path d="M96.82 22V8.112H99.984L100.264 10.464C100.693 9.64267 101.309 8.98933 102.112 8.504C102.933 8.01867 103.895 7.776 104.996 7.776C106.713 7.776 108.048 8.31733 109 9.4C109.952 10.4827 110.428 12.0693 110.428 14.16V22H106.844V14.496C106.844 13.3013 106.601 12.3867 106.116 11.752C105.631 11.1173 104.875 10.8 103.848 10.8C102.84 10.8 102.009 11.1547 101.356 11.864C100.721 12.5733 100.404 13.5627 100.404 14.832V22H96.82ZM119.063 22.336C117.327 22.336 115.983 21.7947 115.031 20.712C114.098 19.6293 113.631 18.0427 113.631 15.952V8.112H117.187V15.616C117.187 16.8107 117.43 17.7253 117.915 18.36C118.4 18.9947 119.166 19.312 120.211 19.312C121.2 19.312 122.012 18.9573 122.647 18.248C123.3 17.5387 123.627 16.5493 123.627 15.28V8.112H127.211V22H124.047L123.767 19.648C123.338 20.4693 122.712 21.1227 121.891 21.608C121.088 22.0933 120.146 22.336 119.063 22.336ZM129.574 22L134.614 15.056L129.574 8.112H133.41L136.938 13.04L140.438 8.112H144.302L139.234 15.056L144.302 22H140.438L136.938 17.072L133.41 22H129.574ZM152.774 22C151.318 22 150.151 21.6453 149.274 20.936C148.396 20.2267 147.958 18.9667 147.958 17.156V11.108H145.578V8.112H147.958L148.378 4.388H151.542V8.112H155.294V11.108H151.542V17.184C151.542 17.856 151.682 18.3227 151.962 18.584C152.26 18.8267 152.764 18.948 153.474 18.948H155.21V22H152.774ZM157.195 25.108L164.195 0.244H167.695L160.667 25.108H157.195Z" fill="white"/>
<path d="M170.156 28.16V8.112H173.348L173.74 10.1C174.188 9.484 174.776 8.94267 175.504 8.476C176.251 8.00933 177.212 7.776 178.388 7.776C179.695 7.776 180.861 8.09333 181.888 8.728C182.915 9.36267 183.727 10.2307 184.324 11.332C184.921 12.4333 185.22 13.684 185.22 15.084C185.22 16.484 184.921 17.7347 184.324 18.836C183.727 19.9187 182.915 20.7773 181.888 21.412C180.861 22.028 179.695 22.336 178.388 22.336C177.343 22.336 176.428 22.14 175.644 21.748C174.86 21.356 174.225 20.8053 173.74 20.096V28.16H170.156ZM177.632 19.2C178.771 19.2 179.713 18.8173 180.46 18.052C181.207 17.2867 181.58 16.2973 181.58 15.084C181.58 13.8707 181.207 12.872 180.46 12.088C179.713 11.304 178.771 10.912 177.632 10.912C176.475 10.912 175.523 11.304 174.776 12.088C174.048 12.8533 173.684 13.8427 173.684 15.056C173.684 16.2693 174.048 17.268 174.776 18.052C175.523 18.8173 176.475 19.2 177.632 19.2ZM190.645 22L186.585 8.112H190.141L192.549 18.108L195.349 8.112H199.325L202.125 18.108L204.561 8.112H208.117L204.029 22H200.305L197.337 11.612L194.369 22H190.645ZM214.456 22.336C213.261 22.336 212.281 22.1493 211.516 21.776C210.75 21.384 210.181 20.8707 209.808 20.236C209.434 19.6013 209.248 18.9013 209.248 18.136C209.248 16.848 209.752 15.8027 210.76 15C211.768 14.1973 213.28 13.796 215.296 13.796H218.824V13.46C218.824 12.508 218.553 11.808 218.012 11.36C217.47 10.912 216.798 10.688 215.996 10.688C215.268 10.688 214.633 10.8653 214.092 11.22C213.55 11.556 213.214 12.06 213.084 12.732H209.584C209.677 11.724 210.013 10.8467 210.592 10.1C211.189 9.35333 211.954 8.784 212.888 8.392C213.821 7.98133 214.866 7.776 216.024 7.776C218.002 7.776 219.561 8.27067 220.7 9.26C221.838 10.2493 222.408 11.6493 222.408 13.46V22H219.356L219.02 19.76C218.609 20.5067 218.03 21.1227 217.284 21.608C216.556 22.0933 215.613 22.336 214.456 22.336ZM215.268 19.536C216.294 19.536 217.088 19.2 217.648 18.528C218.226 17.856 218.59 17.0253 218.74 16.036H215.688C214.736 16.036 214.054 16.2133 213.644 16.568C213.233 16.904 213.028 17.324 213.028 17.828C213.028 18.3693 213.233 18.7893 213.644 19.088C214.054 19.3867 214.596 19.536 215.268 19.536Z" fill="#5A0FC8"/>
</g>
<defs>
<clipPath id="clip0">
<rect width="225" height="32" fill="white"/>
</clipPath>
</defs>
</svg>
