<svg width="220" height="40" viewBox="0 0 220 40" fill="none" xmlns="http://www.w3.org/2000/svg">
<path d="M58.8793 30.5658L61.1903 24.6787H67.8631L64.6957 15.7482L68.6565 5.65906L80.0001 36H71.6346L69.6963 30.5658H58.8793Z" fill="white" fill-opacity="0.91"/>
<path d="M51.7383 34.3409L63.8818 4L55.8312 4.00065L47.5241 23.6076L41.6166 4.00065H35.4288L29.0864 23.6076L24.6131 14.6726L20.5651 27.2358L24.6753 34.3409H32.5982L38.33 16.7577L43.7943 34.3409H51.7383Z" fill="#8C57D9"/>
<path d="M7.64194 23.9249H12.6008C14.103 23.9249 15.4404 23.7563 16.6135 23.4183L17.8958 19.4386L21.48 8.31439C21.2074 7.87888 20.8957 7.46599 20.5448 7.07765C18.7046 5.02545 16.0119 4 12.4674 4H0V34.341H7.64194V23.9249ZM14.2056 10.9798C14.9247 11.7087 15.2839 12.6844 15.2839 13.9056C15.2839 15.1372 14.9677 16.1135 14.3358 16.8353C13.6425 17.6371 12.3667 18.0384 10.5078 18.0384H7.64194V9.88714H10.529C12.2615 9.88714 13.4872 10.2509 14.2056 10.9798Z" fill="white" fill-opacity="0.91"/>
<path d="M91.82 30V16.112H94.984L95.264 18.464C95.6933 17.6427 96.3093 16.9893 97.112 16.504C97.9333 16.0187 98.8947 15.776 99.996 15.776C101.713 15.776 103.048 16.3173 104 17.4C104.952 18.4827 105.428 20.0693 105.428 22.16V30H101.844V22.496C101.844 21.3013 101.601 20.3867 101.116 19.752C100.631 19.1173 99.8747 18.8 98.848 18.8C97.84 18.8 97.0093 19.1547 96.356 19.864C95.7213 20.5733 95.404 21.5627 95.404 22.832V30H91.82ZM122.239 16.112V30H119.075L118.795 27.648C118.366 28.4693 117.74 29.1227 116.919 29.608C116.116 30.0933 115.164 30.336 114.063 30.336C112.346 30.336 111.011 29.7947 110.059 28.712C109.107 27.6293 108.631 26.0427 108.631 23.952V16.112H112.215V23.616C112.215 24.8107 112.458 25.7253 112.943 26.36C113.428 26.9947 114.184 27.312 115.211 27.312C116.219 27.312 117.04 26.9573 117.675 26.248C118.328 25.5387 118.655 24.5493 118.655 23.28V16.112H122.239ZM124.574 30L129.614 23.056L124.574 16.112H128.41L131.938 21.04L135.438 16.112H139.302L134.234 23.056L139.302 30H135.438L131.938 25.072L128.41 30H124.574ZM147.774 30C146.318 30 145.151 29.6453 144.274 28.936C143.396 28.2267 142.958 26.9667 142.958 25.156V19.108H140.578V16.112H142.958L143.378 12.388H146.542V16.112H150.294V19.108H146.542V25.184C146.542 25.856 146.682 26.3227 146.962 26.584C147.26 26.8267 147.764 26.948 148.474 26.948H150.21V30H147.774ZM152.195 33.108L159.195 8.244H162.695L155.667 33.108H152.195Z" fill="white"/>
<path d="M165.156 36.16V16.112H168.348L168.74 18.1C169.188 17.484 169.776 16.9427 170.504 16.476C171.251 16.0093 172.212 15.776 173.388 15.776C174.695 15.776 175.861 16.0933 176.888 16.728C177.915 17.3627 178.727 18.2307 179.324 19.332C179.921 20.4333 180.22 21.684 180.22 23.084C180.22 24.484 179.921 25.7347 179.324 26.836C178.727 27.9187 177.915 28.7773 176.888 29.412C175.861 30.028 174.695 30.336 173.388 30.336C172.343 30.336 171.428 30.14 170.644 29.748C169.86 29.356 169.225 28.8053 168.74 28.096V36.16H165.156ZM172.632 27.2C173.771 27.2 174.713 26.8173 175.46 26.052C176.207 25.2867 176.58 24.2973 176.58 23.084C176.58 21.8707 176.207 20.872 175.46 20.088C174.713 19.304 173.771 18.912 172.632 18.912C171.475 18.912 170.523 19.304 169.776 20.088C169.048 20.8533 168.684 21.8427 168.684 23.056C168.684 24.2693 169.048 25.268 169.776 26.052C170.523 26.8173 171.475 27.2 172.632 27.2ZM185.645 30L181.585 16.112H185.141L187.549 26.108L190.349 16.112H194.325L197.125 26.108L199.561 16.112H203.117L199.029 30H195.305L192.337 19.612L189.369 30H185.645ZM209.456 30.336C208.261 30.336 207.281 30.1493 206.516 29.776C205.75 29.384 205.181 28.8707 204.808 28.236C204.434 27.6013 204.248 26.9013 204.248 26.136C204.248 24.848 204.752 23.8027 205.76 23C206.768 22.1973 208.28 21.796 210.296 21.796H213.824V21.46C213.824 20.508 213.553 19.808 213.012 19.36C212.47 18.912 211.798 18.688 210.996 18.688C210.268 18.688 209.633 18.8653 209.092 19.22C208.55 19.556 208.214 20.06 208.084 20.732H204.584C204.677 19.724 205.013 18.8467 205.592 18.1C206.189 17.3533 206.954 16.784 207.888 16.392C208.821 15.9813 209.866 15.776 211.024 15.776C213.002 15.776 214.561 16.2707 215.7 17.26C216.838 18.2493 217.408 19.6493 217.408 21.46V30H214.356L214.02 27.76C213.609 28.5067 213.03 29.1227 212.284 29.608C211.556 30.0933 210.613 30.336 209.456 30.336ZM210.268 27.536C211.294 27.536 212.088 27.2 212.648 26.528C213.226 25.856 213.59 25.0253 213.74 24.036H210.688C209.736 24.036 209.054 24.2133 208.644 24.568C208.233 24.904 208.028 25.324 208.028 25.828C208.028 26.3693 208.233 26.7893 208.644 27.088C209.054 27.3867 209.596 27.536 210.268 27.536Z" fill="#8C57D9"/>
</svg>
