<svg width="220" height="40" viewBox="0 0 220 40" fill="none" xmlns="http://www.w3.org/2000/svg">
<path d="M58.8793 30.5658L61.1903 24.6787H67.8631L64.6957 15.7482L68.6565 5.65906L80.0001 36H71.6346L69.6963 30.5658H58.8793Z" fill="black" fill-opacity="0.91"/>
<path d="M51.7383 34.3409L63.8818 4L55.8312 4.00065L47.5241 23.6076L41.6166 4.00065H35.4288L29.0864 23.6076L24.6131 14.6726L20.5651 27.2358L24.6753 34.3409H32.5982L38.33 16.7577L43.7943 34.3409H51.7383Z" fill="#5A0FC8"/>
<path d="M7.64194 23.9249H12.6008C14.103 23.9249 15.4404 23.7563 16.6135 23.4183L17.8958 19.4386L21.48 8.31439C21.2074 7.87888 20.8957 7.46599 20.5448 7.07765C18.7046 5.02545 16.0119 4 12.4674 4H0V34.341H7.64194V23.9249ZM14.2056 10.9798C14.9247 11.7087 15.2839 12.6844 15.2839 13.9056C15.2839 15.1372 14.9677 16.1135 14.3358 16.8353C13.6425 17.6371 12.3667 18.0384 10.5078 18.0384H7.64194V9.88714H10.529C12.2615 9.88714 13.4872 10.2509 14.2056 10.9798Z" fill="black" fill-opacity="0.91"/>
<path d="M91.82 29V15.112H94.984L95.264 17.464C95.6933 16.6427 96.3093 15.9893 97.112 15.504C97.9333 15.0187 98.8947 14.776 99.996 14.776C101.713 14.776 103.048 15.3173 104 16.4C104.952 17.4827 105.428 19.0693 105.428 21.16V29H101.844V21.496C101.844 20.3013 101.601 19.3867 101.116 18.752C100.631 18.1173 99.8747 17.8 98.848 17.8C97.84 17.8 97.0093 18.1547 96.356 18.864C95.7213 19.5733 95.404 20.5627 95.404 21.832V29H91.82ZM122.239 15.112V29H119.075L118.795 26.648C118.366 27.4693 117.74 28.1227 116.919 28.608C116.116 29.0933 115.164 29.336 114.063 29.336C112.346 29.336 111.011 28.7947 110.059 27.712C109.107 26.6293 108.631 25.0427 108.631 22.952V15.112H112.215V22.616C112.215 23.8107 112.458 24.7253 112.943 25.36C113.428 25.9947 114.184 26.312 115.211 26.312C116.219 26.312 117.04 25.9573 117.675 25.248C118.328 24.5387 118.655 23.5493 118.655 22.28V15.112H122.239ZM124.574 29L129.614 22.056L124.574 15.112H128.41L131.938 20.04L135.438 15.112H139.302L134.234 22.056L139.302 29H135.438L131.938 24.072L128.41 29H124.574ZM147.774 29C146.318 29 145.151 28.6453 144.274 27.936C143.396 27.2267 142.958 25.9667 142.958 24.156V18.108H140.578V15.112H142.958L143.378 11.388H146.542V15.112H150.294V18.108H146.542V24.184C146.542 24.856 146.682 25.3227 146.962 25.584C147.26 25.8267 147.764 25.948 148.474 25.948H150.21V29H147.774ZM152.195 32.108L159.195 7.244H162.695L155.667 32.108H152.195Z" fill="black"/>
<path d="M165.156 35.16V15.112H168.348L168.74 17.1C169.188 16.484 169.776 15.9427 170.504 15.476C171.251 15.0093 172.212 14.776 173.388 14.776C174.695 14.776 175.861 15.0933 176.888 15.728C177.915 16.3627 178.727 17.2307 179.324 18.332C179.921 19.4333 180.22 20.684 180.22 22.084C180.22 23.484 179.921 24.7347 179.324 25.836C178.727 26.9187 177.915 27.7773 176.888 28.412C175.861 29.028 174.695 29.336 173.388 29.336C172.343 29.336 171.428 29.14 170.644 28.748C169.86 28.356 169.225 27.8053 168.74 27.096V35.16H165.156ZM172.632 26.2C173.771 26.2 174.713 25.8173 175.46 25.052C176.207 24.2867 176.58 23.2973 176.58 22.084C176.58 20.8707 176.207 19.872 175.46 19.088C174.713 18.304 173.771 17.912 172.632 17.912C171.475 17.912 170.523 18.304 169.776 19.088C169.048 19.8533 168.684 20.8427 168.684 22.056C168.684 23.2693 169.048 24.268 169.776 25.052C170.523 25.8173 171.475 26.2 172.632 26.2ZM185.645 29L181.585 15.112H185.141L187.549 25.108L190.349 15.112H194.325L197.125 25.108L199.561 15.112H203.117L199.029 29H195.305L192.337 18.612L189.369 29H185.645ZM209.456 29.336C208.261 29.336 207.281 29.1493 206.516 28.776C205.75 28.384 205.181 27.8707 204.808 27.236C204.434 26.6013 204.248 25.9013 204.248 25.136C204.248 23.848 204.752 22.8027 205.76 22C206.768 21.1973 208.28 20.796 210.296 20.796H213.824V20.46C213.824 19.508 213.553 18.808 213.012 18.36C212.47 17.912 211.798 17.688 210.996 17.688C210.268 17.688 209.633 17.8653 209.092 18.22C208.55 18.556 208.214 19.06 208.084 19.732H204.584C204.677 18.724 205.013 17.8467 205.592 17.1C206.189 16.3533 206.954 15.784 207.888 15.392C208.821 14.9813 209.866 14.776 211.024 14.776C213.002 14.776 214.561 15.2707 215.7 16.26C216.838 17.2493 217.408 18.6493 217.408 20.46V29H214.356L214.02 26.76C213.609 27.5067 213.03 28.1227 212.284 28.608C211.556 29.0933 210.613 29.336 209.456 29.336ZM210.268 26.536C211.294 26.536 212.088 26.2 212.648 25.528C213.226 24.856 213.59 24.0253 213.74 23.036H210.688C209.736 23.036 209.054 23.2133 208.644 23.568C208.233 23.904 208.028 24.324 208.028 24.828C208.028 25.3693 208.233 25.7893 208.644 26.088C209.054 26.3867 209.596 26.536 210.268 26.536Z" fill="#5A0FC8"/>
</svg>
